<?xml version="1.0" encoding="UTF-8"?>
<svg width="500" height="400" viewBox="0 0 500 400" fill="none" xmlns="http://www.w3.org/2000/svg">
  <!-- Background Circle -->
  <circle cx="250" cy="200" r="180" fill="#F5F5F5"/>
  
  <!-- Running Figure -->
  <path d="M250 100C277.614 100 300 122.386 300 150C300 177.614 277.614 200 250 200C222.386 200 200 177.614 200 150C200 122.386 222.386 100 250 100Z" fill="#FC5200"/>
  <path d="M250 200L250 300" stroke="#FC5200" stroke-width="8" stroke-linecap="round"/>
  <path d="M200 250L300 250" stroke="#FC5200" stroke-width="8" stroke-linecap="round"/>
  
  <!-- Activity Lines -->
  <path d="M100 150C150 100 200 250 300 200" stroke="#FC5200" stroke-width="4" stroke-linecap="round" stroke-dasharray="10 10"/>
  <path d="M100 250C150 200 200 350 300 300" stroke="#FC5200" stroke-width="4" stroke-linecap="round" stroke-dasharray="10 10"/>
  
  <!-- Data Points -->
  <circle cx="150" cy="150" r="8" fill="#FC5200"/>
  <circle cx="200" cy="200" r="8" fill="#FC5200"/>
  <circle cx="250" cy="250" r="8" fill="#FC5200"/>
  <circle cx="300" cy="300" r="8" fill="#FC5200"/>
</svg> 